# xmcd CD database file
#
# Track frame offsets:
#	150
#	29089
#	56619
#	74479
#	102462
#	121818
#	143753
#	165313
#	196072
#	221351
#	252931
#	278288
#	296443
#	324727
#
# Disc length: 4543 seconds
#
# Revision: 2
# Processed by: cddbd v1.4PL0 Copyright (c) Steve Scherf et al.
# Submitted via: CDex 1.51
#
DISCID=cc11bd0e
DTITLE=Various Artist - Jazz I Noves Músiques De Catalunya - 10
DYEAR=2003
DGENRE=Jazz
TTITLE0=Brassass Company - Tati
TTITLE1=Lluís Vidal Trio and Mark Feldman - Secret Omnium
TTITLE2=Joe Smith - Duet Now
TTITLE3=Jason Lindner - Giulia Valle - Marc Ayza - Don't You Worry' Bout A Thing
TTITLE4=Juan De Diego Freaky Trio - La Boloñesa De Abdellah
TTITLE5=Laura Simó and Ensemble De Bellaterra - Recit De Cassard
TTITLE6=Alexis Cuadrado - 'Round Mingus
TTITLE7=Buenos Aires - Barcelona Connection - Pio Rythm
TTITLE8=Carme Canela and Trio - Océano
TTITLE9=La Big Latin Band - Prayer Prayi'n
TTITLE10=A. Jacob - Good Morning Mister Mussel
TTITLE11=Dani Rambla Quintet - Waitin' For Muriel
TTITLE12=Unexpected - Sarcastic Beauty
TTITLE13=Rodrigo Flores and Gardelia - Mano A Mano
EXTD=YEAR: 2003
EXTT0=
EXTT1=
EXTT2=
EXTT3=
EXTT4=
EXTT5=
EXTT6=
EXTT7=
EXTT8=
EXTT9=
EXTT10=
EXTT11=
EXTT12=
EXTT13=
PLAYORDER=
